<svg xmlns="http://www.w3.org/2000/svg" width="48" height="48" viewBox="0 0 48 48" fill="none">
  <rect width="48" height="48" rx="8" fill="#4F46E5" />
  <path d="M24 10C16.268 10 10 16.268 10 24C10 31.732 16.268 38 24 38C31.732 38 38 31.732 38 24C38 16.268 31.732 10 24 10ZM24 14C26.418 14 28.5 16.082 28.5 18.5C28.5 20.918 26.418 23 24 23C21.582 23 19.5 20.918 19.5 18.5C19.5 16.082 21.582 14 24 14ZM24 34.8C20.25 34.8 16.935 32.928 15 30.06C15.045 27.03 21 25.35 24 25.35C26.985 25.35 32.955 27.03 33 30.06C31.065 32.928 27.75 34.8 24 34.8Z" fill="white" />
</svg> 